PathFileType	4	(X/Y/Z)	RBDS019static.trc
DataRate	CameraRate	NumFrames	NumMarkers	Units	OrigDataRate	OrigDataStartFrame	OrigNumFrames
150.000000	150.000000	4	48	mm	150.000000	37	150
Frame#	Time	L.Ankle			L.Ankle.Medial			L.ASIS			L.GTR			L.Heel.Bottom			L.Heel.Lateral			L.Heel.Top			L.HF			L.Iliac.Crest			L.Knee			L.Knee.Medial			L.MT1			L.MT2			L.MT5			L.PSIS			L.Shank.Bottom.Lateral			L.Shank.Bottom.Medial			L.Shank.Top.Lateral			L.Shank.Top.Medial			L.Thigh.Bottom.Lateral			L.Thigh.Bottom.Medial			L.Thigh.Top.Lateral			L.Thigh.Top.Medial			L.TT			R.Ankle			R.Ankle.Medial			R.ASIS			R.GTR			R.Heel.Bottom			R.Heel.Lateral			R.Heel.Top			R.HF			R.Iliac.Crest			R.Knee			R.Knee.Medial			R.MT1			R.MT2			R.MT5			R.PSIS			R.Shank.Bottom.Lateral			R.Shank.Bottom.Medial			R.Shank.Top.Lateral			R.Shank.Top.Medial			R.Thigh.Bottom.Lateral			R.Thigh.Bottom.Medial			R.Thigh.Top.Lateral			R.Thigh.Top.Medial			R.TT			
		X1	Y1	Z1	X2	Y2	Z2	X3	Y3	Z3	X4	Y4	Z4	X5	Y5	Z5	X6	Y6	Z6	X7	Y7	Z7	X8	Y8	Z8	X9	Y9	Z9	X10	Y10	Z10	X11	Y11	Z11	X12	Y12	Z12	X13	Y13	Z13	X14	Y14	Z14	X15	Y15	Z15	X16	Y16	Z16	X17	Y17	Z17	X18	Y18	Z18	X19	Y19	Z19	X20	Y20	Z20	X21	Y21	Z21	X22	Y22	Z22	X23	Y23	Z23	X24	Y24	Z24	X25	Y25	Z25	X26	Y26	Z26	X27	Y27	Z27	X28	Y28	Z28	X29	Y29	Z29	X30	Y30	Z30	X31	Y31	Z31	X32	Y32	Z32	X33	Y33	Z33	X34	Y34	Z34	X35	Y35	Z35	X36	Y36	Z36	X37	Y37	Z37	X38	Y38	Z38	X39	Y39	Z39	X40	Y40	Z40	X41	Y41	Z41	X42	Y42	Z42	X43	Y43	Z43	X44	Y44	Z44	X45	Y45	Z45	X46	Y46	Z46	X47	Y47	Z47	X48	Y48	Z48	

38	0.2466666666666667	710.4447021484375	94.59144592285156	1046.74560546875	717.859130859375	101.9043502807617	1126.806030273438	832.1785888671875	971.1554565429688	1114.361328125	768.9563598632813	891.0131225585938	1051.986938476563	635.233642578125	36.40628433227539	1081.833374023438	666.8118286132813	56.41435241699219	1040.60302734375	643.6887817382813	84.31671905517578	1083.069702148438	720.2632446289063	441.9822387695313	1036.889282226563	772.8770751953125	1024.970825195313	1073.22900390625	724.8928833007813	500.5500793457031	1043.739990234375	706.4910278320313	481.0866088867188	1166.109619140625	836.6755981445313	54.22001266479492	1127.616821289063	845.8084106445313	67.45320892333984	1084.479248046875	812.5350952148438	48.3302001953125	1020.965393066406	657.4615478515625	994.7907104492188	1167.384155273438	699.8585815429688	176.9028930664063	1037.192504882813	660.9804077148438	172.5154571533203	1070.026977539063	686.97509765625	255.9395599365234	1026.359130859375	648.392333984375	255.8014526367188	1062.420532226563	725.4046020507813	613.2230834960938	1036.684448242188	662.5607299804688	620.9707641601563	1074.277099609375	735.7105712890625	722.4590454101563	1033.87939453125	676.3411254882813	729.4385375976563	1070.908569335938	769.5785522460938	426.0049133300781	1090.349609375	706.2727661132813	98.81315612792969	1406.8837890625	723.6886596679688	109.3557510375977	1327.611938476563	815.7644653320313	972.7493286132813	1350.72216796875	744.1078491210938	898.4482421875	1401.7744140625	634.5733642578125	39.99636840820313	1368.194458007813	661.9055786132813	57.31313323974609	1407.33740234375	644.1300659179688	84.94715881347656	1365.928100585938	715.2117919921875	451.3053894042969	1404.751586914063	758.7782592773438	1036.367065429688	1368.217041015625	718.376953125	511.7130126953125	1397.591796875	722.4755859375	484.9523620605469	1274.62744140625	832.3712158203125	58.75012969970703	1328.444091796875	846.5935668945313	69.90506744384766	1370.98583984375	805.6884765625	47.60969543457031	1434.55322265625	654.0557861328125	1003.967346191406	1268.987670898438	698.1348876953125	170.988525390625	1411.949951171875	659.1988525390625	168.6738433837891	1372.156127929688	683.8533935546875	250.5815582275391	1420.072631835938	647.3984985351563	247.8353424072266	1379.9462890625	707.0406494140625	607.3323974609375	1405.185546875	656.396240234375	610.4569091796875	1354.43994140625	708.5706176757813	717.7130737304688	1409.577270507813	657.8004760742188	720.1954956054688	1363.797729492188	768.4931640625	429.8005981445313	1352.865112304688	
39	0.2533333333333334	710.4451904296875	94.58783721923828	1046.740844726563	717.8544311523438	101.8919906616211	1126.793579101563	832.1669311523438	971.154541015625	1114.347534179688	768.9580078125	891.017822265625	1051.958251953125	635.2374267578125	36.39806365966797	1081.832641601563	666.8201904296875	56.42011642456055	1040.602783203125	643.6848754882813	84.31532287597656	1083.083251953125	720.27099609375	441.9838562011719	1036.87890625	772.887451171875	1024.973876953125	1073.211547851563	724.9003295898438	500.5482177734375	1043.72802734375	706.4900512695313	481.0935363769531	1166.102783203125	836.6709594726563	54.22353744506836	1127.62109375	845.8057861328125	67.44948577880859	1084.4755859375	812.534423828125	48.32171630859375	1020.975891113281	657.4567260742188	994.7866821289063	1167.362060546875	699.859375	176.9082183837891	1037.1904296875	660.9802856445313	172.5255279541016	1070.033447265625	686.9801025390625	255.9359588623047	1026.34765625	648.3955078125	255.8011627197266	1062.412109375	725.4098510742188	613.2212524414063	1036.674072265625	662.5618286132813	620.9722290039063	1074.26416015625	735.717041015625	722.4486694335938	1033.866333007813	676.3505249023438	729.4348754882813	1070.884643554688	769.5769653320313	426.0188903808594	1090.343139648438	706.2717895507813	98.81143188476563	1406.87890625	723.6724243164063	109.3564376831055	1327.59423828125	815.7447509765625	972.7523193359375	1350.712646484375	744.0833740234375	898.4555053710938	1401.760131835938	634.5664672851563	39.9947509765625	1368.18994140625	661.9008178710938	57.30708312988281	1407.33544921875	644.1250610351563	84.95187377929688	1365.92431640625	715.2019653320313	451.3034973144531	1404.740844726563	758.7395629882813	1036.3642578125	1368.18603515625	718.3492431640625	511.6155395507813	1397.378540039063	722.4931640625	484.9505615234375	1274.615844726563	832.3656005859375	58.75090026855469	1328.446655273438	846.5864868164063	69.90629577636719	1370.978271484375	805.6873779296875	47.60820770263672	1434.546142578125	654.0380249023438	1003.956970214844	1268.935791015625	698.1365356445313	170.9742279052734	1411.943725585938	659.1920776367188	168.6691284179688	1372.151977539063	683.8519897460938	250.5711212158203	1420.073486328125	647.3965454101563	247.8310089111328	1379.941162109375	707.0271606445313	607.3319091796875	1405.16552734375	656.3854370117188	610.451416015625	1354.440551757813	708.5542602539063	717.71435546875	1409.555541992188	657.7877807617188	720.191162109375	1363.765747070313	768.4783325195313	429.8005065917969	1352.868530273438	
40	0.26	710.4494018554688	94.5924072265625	1046.733276367188	717.8598022460938	101.8986358642578	1126.79443359375	832.1675415039063	971.1591186523438	1114.341674804688	768.9572143554688	891.0208740234375	1051.928344726563	635.2387084960938	36.40890502929688	1081.843994140625	666.8170166015625	56.41852188110352	1040.601684570313	643.6896362304688	84.31568145751953	1083.07177734375	720.2567138671875	441.9868469238281	1036.865112304688	772.8904418945313	1024.97900390625	1073.193725585938	724.9078369140625	500.5411376953125	1043.726196289063	706.4880981445313	481.104248046875	1166.084838867188	836.66748046875	54.21844100952148	1127.618408203125	845.80419921875	67.440673828125	1084.469604492188	812.5386962890625	48.32908248901367	1020.964904785156	657.4474487304688	994.7816772460938	1167.3349609375	699.85302734375	176.9128875732422	1037.182861328125	660.9805297851563	172.5158081054688	1070.019165039063	686.9807739257813	255.9357147216797	1026.349365234375	648.391845703125	255.8014831542969	1062.410400390625	725.4124755859375	613.2177124023438	1036.657470703125	662.562744140625	620.9705200195313	1074.242919921875	735.71533203125	722.450927734375	1033.853637695313	676.3424072265625	729.4288940429688	1070.86328125	769.5792236328125	426.0087280273438	1090.332153320313	706.27587890625	98.81096649169922	1406.87353515625	723.6732177734375	109.3632507324219	1327.597412109375	815.7094116210938	972.754638671875	1350.698120117188	744.0569458007813	898.4488525390625	1401.734741210938	634.571044921875	40.00333023071289	1368.179931640625	661.9027099609375	57.30986022949219	1407.335327148438	644.1325073242188	84.95195007324219	1365.92236328125	715.2040405273438	451.3056030273438	1404.729248046875	758.7113647460938	1036.360229492188	1368.176513671875	718.3427124023438	511.6200866699219	1397.375732421875	722.4843139648438	484.9371337890625	1274.610717773438	832.3702392578125	58.75557708740234	1328.447509765625	846.5919189453125	69.91088104248047	1370.993286132813	805.6883544921875	47.61309432983398	1434.547119140625	654.0151977539063	1003.963073730469	1268.91015625	698.13330078125	170.9745330810547	1411.942626953125	659.191162109375	168.6669921875	1372.145874023438	683.8583374023438	250.5725250244141	1420.072875976563	647.3958740234375	247.8294677734375	1379.93310546875	707.0066528320313	607.3296508789063	1405.146606445313	656.3766479492188	610.4486694335938	1354.4130859375	708.5369262695313	717.7205810546875	1409.533203125	657.7750854492188	720.1861572265625	1363.73046875	768.4802856445313	429.8043823242188	1352.854125976563	
41	0.2666666666666667	710.4515380859375	94.59126281738281	1046.724609375	717.8576049804688	101.8992919921875	1126.800415039063	832.1661987304688	971.1591186523438	1114.324829101563	768.97412109375	891.0253295898438	1051.911254882813	635.2431640625	36.39910888671875	1081.844604492188	666.81689453125	56.4177360534668	1040.600708007813	643.6923217773438	84.31470489501953	1083.06298828125	720.264404296875	441.9935607910156	1036.852661132813	772.8937377929688	1024.982177734375	1073.166259765625	724.911865234375	500.5457153320313	1043.709838867188	706.4922485351563	481.0987243652344	1166.080322265625	836.6771850585938	54.21598434448242	1127.619873046875	845.8134155273438	67.44748687744141	1084.474731445313	812.5374755859375	48.32941436767578	1020.96435546875	657.4362182617188	994.7850341796875	1167.309814453125	699.858154296875	176.9070434570313	1037.1904296875	660.9871826171875	172.5092010498047	1070.021240234375	686.9763793945313	255.9256439208984	1026.34130859375	648.3956909179688	255.7977294921875	1062.403564453125	725.4248046875	613.2156982421875	1036.647338867188	662.56494140625	620.9691162109375	1074.22900390625	735.72607421875	722.4539794921875	1033.83251953125	676.3505249023438	729.43212890625	1070.856567382813	769.5742797851563	426.0111694335938	1090.331298828125	706.27734375	98.81313323974609	1406.88134765625	723.68701171875	109.3503799438477	1327.605834960938	815.6896362304688	972.7586059570313	1350.680419921875	744.03076171875	898.4466552734375	1401.715087890625	634.5732421875	39.99851226806641	1368.185668945313	661.8997192382813	57.31272125244141	1407.347900390625	644.13037109375	84.94588470458984	1365.924438476563	715.2012329101563	451.3086547851563	1404.71923828125	758.6775512695313	1036.352661132813	1368.164306640625	718.3519897460938	511.7140808105469	1397.557983398438	722.466796875	484.9483947753906	1274.599853515625	832.3674926757813	58.75554275512695	1328.448852539063	846.5991821289063	69.90565490722656	1370.991577148438	805.68359375	47.6130485534668	1434.547729492188	653.9969482421875	1003.953979492188	1268.882446289063	698.1328735351563	170.9661407470703	1411.937133789063	659.1900024414063	168.6670074462891	1372.15478515625	683.8511352539063	250.5675201416016	1420.061889648438	647.3936767578125	247.8317565917969	1379.93115234375	706.9951171875	607.3336791992188	1405.135864257813	656.3654174804688	610.4462890625	1354.403076171875	708.5216674804688	717.7244873046875	1409.512573242188	657.7643432617188	720.1783447265625	1363.716186523438	768.4755859375	429.7992248535156	1352.852661132813	
